<svg xmlns="http://www.w3.org/2000/svg" viewBox="0 0 608.46 239.52"><defs><style>.cls-1,.cls-2{fill:#fff;}.cls-1{fill-rule:evenodd;}</style></defs><g id="Layer_2" data-name="Layer 2"><g id="Layer_1-2" data-name="Layer 1"><path class="cls-1" d="M237.68,174.5a40.78,40.78,0,0,1-9.79-1,14.14,14.14,0,0,1-6.27-3.13,11.91,11.91,0,0,1-3.33-5.64,32.26,32.26,0,0,1-1-8.58V139.41a32.41,32.41,0,0,1,1-8.54,11.9,11.9,0,0,1,3.33-5.68,14.25,14.25,0,0,1,6.27-3.13,41.29,41.29,0,0,1,9.79-1h37.05v10.26h-36.5a19.39,19.39,0,0,0-4.51.43,5.81,5.81,0,0,0-2.78,1.45,5.47,5.47,0,0,0-1.41,2.7,18.64,18.64,0,0,0-.39,4.12V155.7a18.37,18.37,0,0,0,.39,4.15,5.45,5.45,0,0,0,1.41,2.67,5.54,5.54,0,0,0,2.82,1.41,22.06,22.06,0,0,0,4.55.39h36.42V174.5Z"/><rect class="cls-2" x="279.57" y="118.34" width="11.91" height="56.16"/><path class="cls-1" d="M322.69,132.05h7.05a41.79,41.79,0,0,1,9.87,1,14,14,0,0,1,6.27,3.18,12,12,0,0,1,3.32,5.72,32.29,32.29,0,0,1,1,8.61v5.64a31.85,31.85,0,0,1-1,8.58,11.82,11.82,0,0,1-3.32,5.64,14.14,14.14,0,0,1-6.27,3.13,41.21,41.21,0,0,1-9.87,1h-7.05v-9.87h5.48a28.28,28.28,0,0,0,5.17-.39,6.77,6.77,0,0,0,3.18-1.37,5.11,5.11,0,0,0,1.56-2.66,18,18,0,0,0,.43-4.35v-5a18.4,18.4,0,0,0-.43-4.39,5.11,5.11,0,0,0-1.56-2.7,6.47,6.47,0,0,0-3.18-1.34,31.82,31.82,0,0,0-5.17-.35h-5.48Zm-7.13,42.45a40.78,40.78,0,0,1-9.79-1,14.14,14.14,0,0,1-6.27-3.13,11.91,11.91,0,0,1-3.33-5.64,32.26,32.26,0,0,1-1-8.58v-5.72a32.71,32.71,0,0,1,1-8.61,11.85,11.85,0,0,1,3.33-5.68,14.26,14.26,0,0,1,6.27-3.14,41.35,41.35,0,0,1,9.79-1h7.13v10h-5.56a31,31,0,0,0-5.13.35,6.44,6.44,0,0,0-3.14,1.34,5,5,0,0,0-1.56,2.7,18.4,18.4,0,0,0-.43,4.39v5a18,18,0,0,0,.43,4.35,5,5,0,0,0,1.56,2.66,6.75,6.75,0,0,0,3.14,1.37,27.58,27.58,0,0,0,5.13.39h5.56v9.87Z"/><path class="cls-1" d="M374,174.5a40.78,40.78,0,0,1-9.79-1,14.14,14.14,0,0,1-6.27-3.13,11.91,11.91,0,0,1-3.33-5.64,32.26,32.26,0,0,1-1-8.58V132.05h11.75v23.81a15.75,15.75,0,0,0,.51,4.43,5.45,5.45,0,0,0,1.61,2.62,6.23,6.23,0,0,0,2.94,1.29,23.88,23.88,0,0,0,4.5.35h12.22a25.69,25.69,0,0,0,4.7-.35,6.06,6.06,0,0,0,2.94-1.29,5.16,5.16,0,0,0,1.49-2.62,18.89,18.89,0,0,0,.43-4.43V132.05h11.59v24.12a32.26,32.26,0,0,1-1,8.58,11.76,11.76,0,0,1-3.33,5.64,14.1,14.1,0,0,1-6.3,3.13,41.74,41.74,0,0,1-9.91,1Z"/><polygon class="cls-1" points="420.4 174.5 420.4 141.52 410.99 141.52 410.99 132.05 420.4 132.05 420.4 120.06 432.3 120.06 432.3 132.05 442.24 132.05 442.24 141.52 432.3 141.52 432.3 174.5 420.4 174.5"/><path class="cls-1" d="M502.15,126.56a6.39,6.39,0,0,1-2.27,4.94l-37.44,32.82h25.61a17.45,17.45,0,0,0,.86,4.75,11.16,11.16,0,0,0,3.55,5.08l.44.35H448.42a5,5,0,0,1-3.84-1.45,5.37,5.37,0,0,1-1.33-3.8,6.55,6.55,0,0,1,2.42-5.09l38.23-32.82H444.5V121.08H497a4.69,4.69,0,0,1,3.84,1.61A5.85,5.85,0,0,1,502.15,126.56Z"/><path class="cls-1" d="M520.34,148.1h17.28v-.94c0-2.71-.55-4.53-1.65-5.44s-3-1.37-5.56-1.37H520.34v-8.3h10.07a34.26,34.26,0,0,1,8.66.94,14.73,14.73,0,0,1,5.83,2.85,11.1,11.1,0,0,1,3.33,4.86,20.64,20.64,0,0,1,1.06,7v10.34a28.56,28.56,0,0,1-.9,7.76,10.43,10.43,0,0,1-3.14,5.09,13.19,13.19,0,0,1-6,2.78,44.31,44.31,0,0,1-9.36.82h-9.6v-8h9.44a17.28,17.28,0,0,0,3.53-.31,5.29,5.29,0,0,0,2.43-1.14,5.05,5.05,0,0,0,1.41-2.31,13.12,13.12,0,0,0,.47-3.84v-3.6H520.34ZM507,174.5a30.76,30.76,0,0,1-7.6-.78,12.45,12.45,0,0,1-4.74-2.23,7.8,7.8,0,0,1-2.47-3.53,14.44,14.44,0,0,1-.7-4.66v-4a15.6,15.6,0,0,1,.66-4.74,7.83,7.83,0,0,1,2.32-3.53,10.76,10.76,0,0,1,4.5-2.19,29.23,29.23,0,0,1,7.25-.75h14.13v7.21H507.46a5.14,5.14,0,0,0-3.21.9c-.79.6-1.18,1.74-1.18,3.41v2.9a3.52,3.52,0,0,0,1.26,3.13,6.11,6.11,0,0,0,3.52.86h12.49v8Zm13.35-34.15H501.55v-8.3h18.79Z"/><path class="cls-1" d="M588,132.05a41.79,41.79,0,0,1,9.87,1,14.16,14.16,0,0,1,6.26,3.14,11.7,11.7,0,0,1,3.33,5.68,32.29,32.29,0,0,1,1,8.61v5.72a31.85,31.85,0,0,1-1,8.58,11.76,11.76,0,0,1-3.33,5.64,14.05,14.05,0,0,1-6.26,3.13,41.21,41.21,0,0,1-9.87,1h-7.44v-9.95h6a38,38,0,0,0,5-.27,6.32,6.32,0,0,0,3.13-1.21,4.77,4.77,0,0,0,1.61-2.67,19.66,19.66,0,0,0,.43-4.62v-5a19.29,19.29,0,0,0-.43-4.55,4.78,4.78,0,0,0-1.61-2.66,6.6,6.6,0,0,0-3.17-1.25,33.32,33.32,0,0,0-5.05-.32h-5.95v-9.94Zm-7.44,42.45H564.36v12.69H552.69V150.45a32.29,32.29,0,0,1,1-8.61,11.7,11.7,0,0,1,3.33-5.68,14.16,14.16,0,0,1,6.26-3.14,41.85,41.85,0,0,1,9.87-1h7.45V142h-7.05a21.31,21.31,0,0,0-4.55.4,5.67,5.67,0,0,0-2.82,1.37,5.21,5.21,0,0,0-1.41,2.66,19.41,19.41,0,0,0-.39,4.27v13.86h16.22Z"/><path class="cls-1" d="M120.62,85.19a39,39,0,0,1,6.13,3.67L164.05,0,120.62,43.28V85.19Zm0,76.41v-7.27a38.33,38.33,0,0,0,18.82-49.46l39.81.15L122.48,161.6ZM29.08,134.5l39.81.16a38.3,38.3,0,0,1,51.73-49.47V43.28L29.08,134.5Zm91.54,19.83v7.27H77.19l4.5-10.85a38.31,38.31,0,0,0,38.93,3.58ZM70,178.85c-8.52,20.24-17.14,40.43-25.68,60.67l60.89-60.67Z"/><path class="cls-1" d="M117,83.7a37.89,37.89,0,0,1,9.72,5.16L164.05,0,117,83.7Zm25.07,30.93h8.38l-8.32,9.79a38.32,38.32,0,0,1-27.3,32.1l-4.31,5.08h11.93L179.25,105l-39.81-.15a38.37,38.37,0,0,1,2.66,9.76ZM95.88,178.85l-51.6,60.67,60.89-60.67Z"/><path class="cls-1" d="M110.26,87.32a33,33,0,0,1,0,64.89v-11a15.48,15.48,0,0,0,7.39-3.67,11.2,11.2,0,0,0,3.65-8.43,9.82,9.82,0,0,0-2-6.41A12.57,12.57,0,0,0,114.4,119a37.13,37.13,0,0,0-4.14-1.44V105a25.55,25.55,0,0,1,6.75,2.74l2.51-6.19a21.85,21.85,0,0,0-5.73-2.58,28.66,28.66,0,0,0-3.53-.82V87.32Zm0,46.83a5.83,5.83,0,0,0,1.63-1,4.51,4.51,0,0,0,1.56-3.49,4,4,0,0,0-1.65-3.34,9.65,9.65,0,0,0-1.54-.93Zm-6.1-47.4a33,33,0,0,1,6.1.57V98.1a28.1,28.1,0,0,0-3.18-.34V91h-2.92v-4.2Zm6.1,65.46a33.92,33.92,0,0,1-6.1.56v-4.2h2.92v-6.86a26.68,26.68,0,0,0,3.18-.53v11Zm0-47.26v12.64c-1-.29-2.05-.56-3.18-.83V104.38a24,24,0,0,1,3.18.57Zm0,20.41v8.79a12,12,0,0,1-3.18.88V124.18A17.3,17.3,0,0,1,110.26,125.36Zm-6.1,27.41a33.2,33.2,0,0,1-5.21-.41V141.43c1,.15,2,.27,3.1.34v6.8h2.11v4.2ZM99,87.16a33.2,33.2,0,0,1,5.21-.41V91h-2.11v6.93a28,28,0,0,0-3.1.48V87.16Zm0,47.52V122.07c1,.28,2,.55,3.1.82v12.26a24.66,24.66,0,0,1-3.1-.47Zm0-20.37v-8.85a11.26,11.26,0,0,1,3.1-.9v10.91A18.23,18.23,0,0,1,99,114.31Zm0,38.05a33,33,0,0,1,0-65.2v11.2a14.91,14.91,0,0,0-7.38,3.69A11.34,11.34,0,0,0,88,110.51a9.84,9.84,0,0,0,2,6.4,12.54,12.54,0,0,0,4.88,3.68A37.89,37.89,0,0,0,99,122.07v12.61a24.59,24.59,0,0,1-3.64-1.1,20.21,20.21,0,0,1-5.52-3.09L87,136.68a18.76,18.76,0,0,0,6.44,3.43A32.94,32.94,0,0,0,99,141.43v10.93Zm0-46.9a6.2,6.2,0,0,0-1.56,1.06,4.83,4.83,0,0,0-1.53,3.62,3.9,3.9,0,0,0,1.59,3.25,10.45,10.45,0,0,0,1.5.92Z"/><path class="cls-1" d="M157.55,65.91a36,36,0,0,1,32.83,32.52,41.76,41.76,0,0,1-23.81,76.07H51.34A51.35,51.35,0,0,1,28,77.42,45.2,45.2,0,0,1,69.33,50.5c1.15,0,2.3,0,3.45.13l1-.58a17.28,17.28,0,0,1,2.7-1.43h0a66.21,66.21,0,0,1,29.69-7,67.88,67.88,0,0,1,9.27.64l-8,7.93H106.2C86,50.19,67.5,57.67,65,79.53c0,0-1.89-11.13,1.73-20.38a36.66,36.66,0,0,0-32,24.59,42.78,42.78,0,0,0,16.63,82.2H166.57a33.19,33.19,0,0,0,21.72-58.3C181,101.53,171.81,96.52,161.2,95.8a47.51,47.51,0,0,1,20.11-.06,27.4,27.4,0,0,0-26.73-21.39q-.66,0-1.32,0a58.5,58.5,0,0,0-10.89-11.5l3.43-8.17A66.89,66.89,0,0,1,157.55,65.91Z"/></g></g></svg>