<svg xmlns="http://www.w3.org/2000/svg" viewBox="0 0 391.15 303.27"><defs><style>.cls-1,.cls-2{fill:#1b4c43;}.cls-1,.cls-3{fill-rule:evenodd;}.cls-3{fill:#1abc9c;}</style></defs><g id="Layer_2" data-name="Layer 2"><g id="Layer_1-2" data-name="Layer 1"><path class="cls-1" d="M20.37,290.58a41.44,41.44,0,0,1-9.8-1,14.06,14.06,0,0,1-6.26-3.14A11.66,11.66,0,0,1,1,280.82a32.23,32.23,0,0,1-1-8.57V255.48A32.33,32.33,0,0,1,1,247a11.7,11.7,0,0,1,3.33-5.68,14.16,14.16,0,0,1,6.26-3.14,41.44,41.44,0,0,1,9.8-1H57.42v10.26H20.91a19.29,19.29,0,0,0-4.5.44,5.73,5.73,0,0,0-2.78,1.45,5.38,5.38,0,0,0-1.41,2.7,18.48,18.48,0,0,0-.39,4.11v15.67a18.43,18.43,0,0,0,.39,4.15,5.46,5.46,0,0,0,1.41,2.66A5.54,5.54,0,0,0,16.45,280a22,22,0,0,0,4.54.39H57.42v10.19Z"/><rect class="cls-2" x="62.26" y="234.41" width="11.91" height="56.16"/><path class="cls-1" d="M105.38,248.12h7.05a41.7,41.7,0,0,1,9.86,1,13.93,13.93,0,0,1,6.27,3.17,12,12,0,0,1,3.33,5.72,32.73,32.73,0,0,1,1,8.62v5.64a32.23,32.23,0,0,1-1,8.57,11.66,11.66,0,0,1-3.33,5.64,14.1,14.1,0,0,1-6.27,3.14,41.7,41.7,0,0,1-9.86,1h-7.05v-9.87h5.48a28.28,28.28,0,0,0,5.17-.39,6.74,6.74,0,0,0,3.17-1.38,5.05,5.05,0,0,0,1.57-2.66,17.87,17.87,0,0,0,.43-4.35v-5a18.4,18.4,0,0,0-.43-4.39,5.06,5.06,0,0,0-1.57-2.7A6.43,6.43,0,0,0,116,258.5a30.72,30.72,0,0,0-5.17-.35h-5.48Zm-7.13,42.46a41.44,41.44,0,0,1-9.8-1,14.06,14.06,0,0,1-6.26-3.14,11.66,11.66,0,0,1-3.33-5.64,32.23,32.23,0,0,1-1-8.57v-5.72a32.73,32.73,0,0,1,1-8.62,11.74,11.74,0,0,1,3.33-5.68,14.15,14.15,0,0,1,6.26-3.13,41.44,41.44,0,0,1,9.8-1h7.13v10H99.81a30,30,0,0,0-5.13.35,6.4,6.4,0,0,0-3.13,1.33,5.06,5.06,0,0,0-1.57,2.7,18.94,18.94,0,0,0-.43,4.39v5a18.39,18.39,0,0,0,.43,4.35,5.05,5.05,0,0,0,1.57,2.66,6.72,6.72,0,0,0,3.13,1.38,27.58,27.58,0,0,0,5.13.39h5.57v9.87Z"/><path class="cls-1" d="M156.72,290.58a41.44,41.44,0,0,1-9.8-1,14.06,14.06,0,0,1-6.26-3.14,11.66,11.66,0,0,1-3.33-5.64,32.23,32.23,0,0,1-1-8.57V248.12H148.1v23.81a15.7,15.7,0,0,0,.51,4.43,5.39,5.39,0,0,0,1.6,2.62,6.28,6.28,0,0,0,2.94,1.3,25,25,0,0,0,4.51.35h12.22a26.69,26.69,0,0,0,4.7-.35,6,6,0,0,0,2.93-1.3,5,5,0,0,0,1.49-2.62,18.31,18.31,0,0,0,.43-4.43V248.12H191v24.13a32.23,32.23,0,0,1-1,8.57,11.82,11.82,0,0,1-3.33,5.64,14.15,14.15,0,0,1-6.31,3.14,42.21,42.21,0,0,1-9.91,1Z"/><polygon class="cls-1" points="203.08 290.58 203.08 257.6 193.68 257.6 193.68 248.12 203.08 248.12 203.08 236.13 214.99 236.13 214.99 248.12 224.93 248.12 224.93 257.6 214.99 257.6 214.99 290.58 203.08 290.58"/><path class="cls-3" d="M284.84,242.64a6.4,6.4,0,0,1-2.27,4.93l-37.45,32.82h25.61a17.54,17.54,0,0,0,.87,4.76,11.26,11.26,0,0,0,3.54,5.08l.45.35H231.1a5,5,0,0,1-3.84-1.45,5.45,5.45,0,0,1-1.33-3.8,6.51,6.51,0,0,1,2.43-5.09l38.23-32.83h-39.4V237.15h52.48a4.72,4.72,0,0,1,3.84,1.61A5.86,5.86,0,0,1,284.84,242.64Z"/><path class="cls-3" d="M303,264.18H320.3v-.94c0-2.72-.55-4.53-1.64-5.45s-3-1.37-5.56-1.37H303v-8.3H313.1a34.64,34.64,0,0,1,8.65.94,14.79,14.79,0,0,1,5.84,2.86,11.27,11.27,0,0,1,3.33,4.86,20.81,20.81,0,0,1,1.06,7v10.34a28.45,28.45,0,0,1-.91,7.75,10.37,10.37,0,0,1-3.13,5.09,13,13,0,0,1-5.95,2.78,44.23,44.23,0,0,1-9.36.83H303v-8h9.44a17.11,17.11,0,0,0,3.52-.32,5.18,5.18,0,0,0,2.43-1.13,4.94,4.94,0,0,0,1.41-2.31,12.88,12.88,0,0,0,.47-3.84v-3.6H303Zm-13.36,26.4a30.56,30.56,0,0,1-7.59-.79,12.16,12.16,0,0,1-4.74-2.23,7.65,7.65,0,0,1-2.47-3.52,14.5,14.5,0,0,1-.7-4.67v-4a15.6,15.6,0,0,1,.66-4.74,7.7,7.7,0,0,1,2.31-3.52,10.88,10.88,0,0,1,4.51-2.2,29.68,29.68,0,0,1,7.24-.74H303v7.21H290.15a5.13,5.13,0,0,0-3.22.9c-.78.6-1.17,1.73-1.17,3.4v2.9a3.53,3.53,0,0,0,1.25,3.13,6.14,6.14,0,0,0,3.53.87H303v8ZM303,256.42h-18.8v-8.3H303Z"/><path class="cls-3" d="M370.7,248.12a41.73,41.73,0,0,1,9.87,1,14.25,14.25,0,0,1,6.27,3.13,11.74,11.74,0,0,1,3.33,5.68,32.73,32.73,0,0,1,1,8.62v5.72a32.23,32.23,0,0,1-1,8.57,11.66,11.66,0,0,1-3.33,5.64,14.15,14.15,0,0,1-6.27,3.14,41.73,41.73,0,0,1-9.87,1h-7.44v-9.95h6a36.2,36.2,0,0,0,5-.28,6.26,6.26,0,0,0,3.13-1.21,4.8,4.8,0,0,0,1.61-2.66,20.21,20.21,0,0,0,.43-4.62v-5a19.75,19.75,0,0,0-.43-4.54,4.77,4.77,0,0,0-1.61-2.66,6.61,6.61,0,0,0-3.17-1.26,33.55,33.55,0,0,0-5.06-.31h-5.95v-9.95Zm-7.44,42.46H347.05v12.69H335.37V266.53a32.73,32.73,0,0,1,1-8.62,11.9,11.9,0,0,1,3.33-5.68A14.25,14.25,0,0,1,346,249.1a41.73,41.73,0,0,1,9.87-1h7.44v9.95h-7.05a22,22,0,0,0-4.54.39,5.75,5.75,0,0,0-2.82,1.37,5.21,5.21,0,0,0-1.41,2.66,19.47,19.47,0,0,0-.39,4.27v13.87h16.21Z"/><path class="cls-3" d="M212,85.19a39,39,0,0,1,6.13,3.67L255.46,0,212,43.28V85.19Zm0,76.41v-7.27a38.33,38.33,0,0,0,18.82-49.46l39.81.15L213.89,161.6Zm-91.54-27.1,39.81.16A38.3,38.3,0,0,1,212,85.19V43.28L120.49,134.5ZM212,154.33v7.27H168.6l4.5-10.85A38.31,38.31,0,0,0,212,154.33Zm-50.66,24.52c-8.52,20.24-17.14,40.43-25.68,60.67l60.89-60.67Z"/><path class="cls-1" d="M208.44,83.7a38.06,38.06,0,0,1,9.72,5.16L255.46,0l-47,83.7Zm25.07,30.93h8.38l-8.32,9.79a38.32,38.32,0,0,1-27.3,32.1L202,161.6h11.93L270.66,105l-39.81-.15a38.37,38.37,0,0,1,2.66,9.76Zm-46.22,64.22-51.6,60.67,60.89-60.67Z"/><path class="cls-1" d="M201.67,87.32a33,33,0,0,1,0,64.89v-11a15.48,15.48,0,0,0,7.39-3.67,11.2,11.2,0,0,0,3.65-8.43,9.77,9.77,0,0,0-2-6.41,12.46,12.46,0,0,0-4.9-3.64,37.13,37.13,0,0,0-4.14-1.44V105a25.55,25.55,0,0,1,6.75,2.74l2.51-6.19a21.85,21.85,0,0,0-5.73-2.58,28.66,28.66,0,0,0-3.53-.82V87.32Zm0,46.83a6,6,0,0,0,1.63-1,4.51,4.51,0,0,0,1.56-3.49,4,4,0,0,0-1.65-3.34,9.65,9.65,0,0,0-1.54-.93Zm-6.1-47.4a33,33,0,0,1,6.1.57V98.1a28.1,28.1,0,0,0-3.18-.34V91h-2.92v-4.2Zm6.1,65.46a33.92,33.92,0,0,1-6.1.56v-4.2h2.92v-6.86a26.68,26.68,0,0,0,3.18-.53v11Zm0-47.26v12.64c-1-.29-2-.56-3.18-.83V104.38a24,24,0,0,1,3.18.57Zm0,20.41v8.79a12.05,12.05,0,0,1-3.18.88V124.18A17.3,17.3,0,0,1,201.67,125.36Zm-6.1,27.41a33.2,33.2,0,0,1-5.21-.41V141.43c1,.15,2,.27,3.1.34v6.8h2.11v4.2Zm-5.21-65.61a33.2,33.2,0,0,1,5.21-.41V91h-2.11v6.93a28,28,0,0,0-3.1.48V87.16Zm0,47.52V122.07c1,.28,2,.55,3.1.82v12.26a24.66,24.66,0,0,1-3.1-.47Zm0-20.37v-8.85a11.26,11.26,0,0,1,3.1-.9v10.91A18.23,18.23,0,0,1,190.36,114.31Zm0,38.05a33,33,0,0,1,0-65.2v11.2a14.91,14.91,0,0,0-7.38,3.69,11.34,11.34,0,0,0-3.62,8.46,9.84,9.84,0,0,0,2,6.4,12.54,12.54,0,0,0,4.88,3.68,37.89,37.89,0,0,0,4.16,1.48v12.61a24.59,24.59,0,0,1-3.64-1.1,20.21,20.21,0,0,1-5.52-3.09l-2.76,6.19a18.67,18.67,0,0,0,6.44,3.43,32.94,32.94,0,0,0,5.48,1.32v10.93Zm0-46.9a6.2,6.2,0,0,0-1.56,1.06,4.83,4.83,0,0,0-1.53,3.62,3.9,3.9,0,0,0,1.59,3.25,10.45,10.45,0,0,0,1.5.92Z"/><path class="cls-3" d="M249,65.91a36,36,0,0,1,32.84,32.52A41.76,41.76,0,0,1,258,174.5H142.75a51.35,51.35,0,0,1-23.34-97.08A45.19,45.19,0,0,1,160.74,50.5c1.15,0,2.3,0,3.45.13l1-.58a17.28,17.28,0,0,1,2.7-1.43h0a66.21,66.21,0,0,1,29.69-7,67.88,67.88,0,0,1,9.27.64l-8,7.93h-1.31c-20.25,0-38.71,7.48-41.2,29.34,0,0-1.88-11.13,1.74-20.38a36.66,36.66,0,0,0-32,24.59,42.78,42.78,0,0,0,16.63,82.2H258a33.19,33.19,0,0,0,21.72-58.3c-7.26-6.11-16.48-11.12-27.09-11.84a47.51,47.51,0,0,1,20.11-.06A27.4,27.4,0,0,0,246,74.35q-.66,0-1.32,0a58.5,58.5,0,0,0-10.89-11.5l3.43-8.17A66.49,66.49,0,0,1,249,65.91Z"/></g></g></svg>